<svg width="60" height="60" viewBox="0 0 60 60" fill="none" xmlns="http://www.w3.org/2000/svg">
<path d="M55 40.4745L55 19.5245C55 10.4245 49.575 4.99951 40.475 4.99951L19.55 4.99951C10.425 4.99951 5 10.4245 5 19.5245L5 40.4495C5 49.5495 10.425 54.9745 19.525 54.9745L40.475 54.9745C49.575 54.9995 55 49.5745 55 40.4745ZM17.5 27.4745C17.25 27.4745 17.025 27.4245 16.775 27.3245C16.325 27.1245 15.95 26.7745 15.75 26.2995C15.65 26.0745 15.6 25.8245 15.6 25.5745C15.6 25.3245 15.65 25.0995 15.75 24.8495C15.85 24.6245 15.975 24.4245 16.15 24.2495L23.525 16.8745C24.25 16.1495 25.45 16.1495 26.175 16.8745C26.9 17.5995 26.9 18.7995 26.175 19.5245L22 23.6995L42.5 23.6995C43.525 23.6995 44.375 24.5495 44.375 25.5745C44.375 26.5995 43.525 27.4745 42.5 27.4745L17.5 27.4745ZM33.8 43.0995C33.425 42.7245 33.25 42.2495 33.25 41.7745C33.25 41.2995 33.425 40.8245 33.8 40.4495L37.975 36.2745L17.5 36.2745C16.475 36.2745 15.625 35.4245 15.625 34.3995C15.625 33.3745 16.475 32.5245 17.5 32.5245L42.5 32.5245C42.75 32.5245 42.975 32.5745 43.225 32.6745C43.675 32.8745 44.05 33.2245 44.25 33.6995C44.45 34.1495 44.45 34.6745 44.25 35.1245C44.15 35.3495 44.025 35.5495 43.85 35.7245L36.475 43.0995C35.725 43.8245 34.525 43.8245 33.8 43.0995Z" fill="url(#paint0_linear_2487_77568)"/>
<defs>
<linearGradient id="paint0_linear_2487_77568" x1="55" y1="29.9871" x2="5" y2="29.9871" gradientUnits="userSpaceOnUse">
<stop stop-color="#1890FF"/>
<stop offset="1" stop-color="#145AFF"/>
</linearGradient>
</defs>
</svg>
