<svg width="36" height="36" viewBox="0 0 36 36" fill="none" xmlns="http://www.w3.org/2000/svg">
<path d="M7.5 13.5V25.5M14.25 13.5V25.5M21.75 13.5V25.5M28.5 13.5V25.5M4.5 27.9L4.5 29.1C4.5 29.9401 4.5 30.3601 4.66349 30.681C4.8073 30.9632 5.03677 31.1927 5.31901 31.3365C5.63988 31.5 6.05992 31.5 6.9 31.5H29.1C29.9401 31.5 30.3601 31.5 30.681 31.3365C30.9632 31.1927 31.1927 30.9632 31.3365 30.681C31.5 30.3601 31.5 29.9401 31.5 29.1V27.9C31.5 27.0599 31.5 26.6399 31.3365 26.319C31.1927 26.0368 30.9632 25.8073 30.681 25.6635C30.3601 25.5 29.9401 25.5 29.1 25.5H6.9C6.05992 25.5 5.63988 25.5 5.31901 25.6635C5.03677 25.8073 4.8073 26.0368 4.66349 26.319C4.5 26.6399 4.5 27.0599 4.5 27.9ZM17.4794 4.6157L6.37937 7.08236C5.70878 7.23138 5.37348 7.30589 5.1232 7.4862C4.90244 7.64525 4.72909 7.86134 4.62172 8.11135C4.5 8.39479 4.5 8.73826 4.5 9.42521L4.5 11.1C4.5 11.9401 4.5 12.3601 4.66349 12.681C4.8073 12.9632 5.03677 13.1927 5.31901 13.3365C5.63988 13.5 6.05992 13.5 6.9 13.5H29.1C29.9401 13.5 30.3601 13.5 30.681 13.3365C30.9632 13.1927 31.1927 12.9632 31.3365 12.681C31.5 12.3601 31.5 11.9401 31.5 11.1V9.42521C31.5 8.73826 31.5 8.39479 31.3783 8.11135C31.2709 7.86134 31.0976 7.64525 30.8768 7.48621C30.6265 7.30589 30.2912 7.23138 29.6206 7.08236L18.5206 4.6157C18.3263 4.57252 18.2292 4.55093 18.131 4.54232C18.0438 4.53468 17.9562 4.53468 17.869 4.54232C17.7708 4.55093 17.6737 4.57252 17.4794 4.6157Z" stroke="#1883FF" stroke-width="2.5" stroke-linecap="round" stroke-linejoin="round"/>
</svg>
