<svg width="28" height="27" viewBox="0 0 28 27" fill="none" xmlns="http://www.w3.org/2000/svg">
<g clip-path="url(#clip0_2487_77254)">
<path d="M14.0001 26.4057C10.4386 26.4057 7.09029 25.0324 4.57196 22.5387C2.05362 20.045 0.666748 16.7295 0.666748 13.2029C0.666748 9.67625 2.05368 6.36073 4.57196 3.86699C7.09024 1.37325 10.4386 0 14.0001 0C17.5615 0 20.9099 1.3733 23.4282 3.86699C25.9465 6.36068 27.3334 9.67625 27.3334 13.2029C27.3334 16.7295 25.9465 20.045 23.4282 22.5387C20.9099 25.0325 17.5615 26.4057 14.0001 26.4057ZM14.0001 1.65036C7.56706 1.65036 2.33341 6.83279 2.33341 13.2029C2.33341 19.5729 7.56706 24.7553 14.0001 24.7553C20.4331 24.7553 25.6668 19.5729 25.6668 13.2029C25.6668 6.83279 20.4331 1.65036 14.0001 1.65036Z" fill="#141415"/>
<path d="M13.9988 12.3797C12.85 12.3797 11.9154 11.4543 11.9154 10.3168C11.9154 9.17928 12.85 8.25384 13.9988 8.25384C15.1475 8.25384 16.0821 9.17928 16.0821 10.3168C16.0821 10.7725 16.4552 11.142 16.9154 11.142C17.3757 11.142 17.7488 10.7725 17.7488 10.3168C17.7488 8.55291 16.4999 7.07342 14.8321 6.69704V5.7783C14.8321 5.3226 14.459 4.95312 13.9988 4.95312C13.5385 4.95312 13.1654 5.3226 13.1654 5.7783V6.69704C11.4976 7.07342 10.2488 8.55291 10.2488 10.3168C10.2488 12.3643 11.931 14.0301 13.9988 14.0301C15.1475 14.0301 16.0821 14.9555 16.0821 16.093C16.0821 17.2305 15.1475 18.156 13.9988 18.156C12.85 18.156 11.9154 17.2305 11.9154 16.093C11.9154 15.6373 11.5424 15.2679 11.0821 15.2679C10.6219 15.2679 10.2488 15.6373 10.2488 16.093C10.2488 17.8569 11.4976 19.3364 13.1654 19.7128V20.6315C13.1654 21.0872 13.5385 21.4567 13.9988 21.4567C14.459 21.4567 14.8321 21.0872 14.8321 20.6315V19.7128C16.4999 19.3364 17.7488 17.8569 17.7488 16.093C17.7488 14.0455 16.0665 12.3797 13.9988 12.3797Z" fill="#141415"/>
</g>
<defs>
<clipPath id="clip0_2487_77254">
<rect width="26.6667" height="26.4057" fill="white" transform="translate(0.666748)"/>
</clipPath>
</defs>
</svg>
