<svg width="44" height="44" viewBox="0 0 44 44" fill="none" xmlns="http://www.w3.org/2000/svg">
<mask id="path-1-outside-1_2487_77401" maskUnits="userSpaceOnUse" x="-0.644531" y="-0.644531" width="45" height="45" fill="black">
<rect fill="white" x="-0.644531" y="-0.644531" width="45" height="45"/>
<path fill-rule="evenodd" clip-rule="evenodd" d="M36.9246 15.6585C36.3328 16.9136 35.5537 18.0966 34.5726 19.0776L29.4683 24.182C31.5624 26.9781 31.3392 30.9728 28.7986 33.5134L24.4684 37.8436C24.0696 38.2425 23.424 38.2425 23.0251 37.8436C22.6261 37.4447 22.6261 36.7991 23.0251 36.4002L23.7468 35.6786L20.86 32.7918C20.8401 32.7719 20.8207 32.7517 20.8018 32.7312L10.8156 22.745C10.795 22.726 10.7747 22.7065 10.7547 22.6865L7.86941 19.8013L7.14769 20.523C6.74883 20.9219 6.10324 20.9219 5.70431 20.523C5.30538 20.1241 5.30538 19.4785 5.70431 19.0796L10.0345 14.7494C12.5746 12.2094 16.5683 11.9857 19.3643 14.0785L24.4689 8.97386C25.4504 7.99235 26.634 7.21292 27.8897 6.62109L27.8909 6.62228C32.4373 4.38576 37.9065 4.3425 38.1808 4.35699C38.7437 4.34264 39.2055 4.80444 39.1911 5.36728C39.2055 5.64156 39.1623 11.112 36.925 15.6587L36.9246 15.6585ZM4.35969 38.0789C4.46046 36.9576 5.05317 31.2764 6.81934 29.5102C8.62715 27.7024 11.0551 27.9723 13.3146 30.2319C15.5742 32.4915 15.8441 34.9194 14.0364 36.7272C12.2702 38.4933 6.58895 39.086 5.46762 39.1868C5.16667 39.2142 4.86857 39.1065 4.65431 38.8922C4.44004 38.6779 4.3322 38.3798 4.35969 38.0789Z"/>
</mask>
<path fill-rule="evenodd" clip-rule="evenodd" d="M36.9246 15.6585C36.3328 16.9136 35.5537 18.0966 34.5726 19.0776L29.4683 24.182C31.5624 26.9781 31.3392 30.9728 28.7986 33.5134L24.4684 37.8436C24.0696 38.2425 23.424 38.2425 23.0251 37.8436C22.6261 37.4447 22.6261 36.7991 23.0251 36.4002L23.7468 35.6786L20.86 32.7918C20.8401 32.7719 20.8207 32.7517 20.8018 32.7312L10.8156 22.745C10.795 22.726 10.7747 22.7065 10.7547 22.6865L7.86941 19.8013L7.14769 20.523C6.74883 20.9219 6.10324 20.9219 5.70431 20.523C5.30538 20.1241 5.30538 19.4785 5.70431 19.0796L10.0345 14.7494C12.5746 12.2094 16.5683 11.9857 19.3643 14.0785L24.4689 8.97386C25.4504 7.99235 26.634 7.21292 27.8897 6.62109L27.8909 6.62228C32.4373 4.38576 37.9065 4.3425 38.1808 4.35699C38.7437 4.34264 39.2055 4.80444 39.1911 5.36728C39.2055 5.64156 39.1623 11.112 36.925 15.6587L36.9246 15.6585ZM4.35969 38.0789C4.46046 36.9576 5.05317 31.2764 6.81934 29.5102C8.62715 27.7024 11.0551 27.9723 13.3146 30.2319C15.5742 32.4915 15.8441 34.9194 14.0364 36.7272C12.2702 38.4933 6.58895 39.086 5.46762 39.1868C5.16667 39.2142 4.86857 39.1065 4.65431 38.8922C4.44004 38.6779 4.3322 38.3798 4.35969 38.0789Z" fill="white"/>
<path d="M34.5726 19.0776L31.4934 15.9984L31.4934 15.9984L34.5726 19.0776ZM36.9246 15.6585L38.9266 11.7913L34.9132 9.71367L32.9858 13.8013L36.9246 15.6585ZM29.4683 24.182L26.3891 21.1028L23.7203 23.7716L25.9828 26.7925L29.4683 24.182ZM28.7986 33.5134L31.8779 36.5926H31.8779L28.7986 33.5134ZM24.4684 37.8436L27.5477 40.9228L27.5477 40.9228L24.4684 37.8436ZM23.0251 37.8436L19.9461 40.9231L19.9461 40.9231L23.0251 37.8436ZM23.0251 36.4002L19.946 33.3208L19.9458 33.321L23.0251 36.4002ZM23.7468 35.6786L26.8259 38.7579L29.9054 35.6787L26.826 32.5993L23.7468 35.6786ZM20.86 32.7918L17.7808 35.871L17.7808 35.871L20.86 32.7918ZM20.8018 32.7312L24.0031 29.779L23.9433 29.7142L23.881 29.6519L20.8018 32.7312ZM10.8156 22.745L13.8949 19.6658L13.8328 19.6037L13.7683 19.5442L10.8156 22.745ZM10.7547 22.6865L13.8339 19.6073L13.8339 19.6072L10.7547 22.6865ZM7.86941 19.8013L10.9486 16.722L7.86949 13.6431L4.79032 16.722L7.86941 19.8013ZM7.14769 20.523L4.0686 17.4436L4.0682 17.444L7.14769 20.523ZM5.70431 20.523L2.62508 23.6022L2.62508 23.6022L5.70431 20.523ZM5.70431 19.0796L8.78329 22.1591L8.78355 22.1588L5.70431 19.0796ZM10.0345 14.7494L6.95532 11.6701L6.95528 11.6702L10.0345 14.7494ZM19.3643 14.0785L16.7548 17.5647L19.7755 19.8257L22.4435 17.1577L19.3643 14.0785ZM24.4689 8.97386L27.5482 12.0531L27.5482 12.0531L24.4689 8.97386ZM27.8897 6.62109L30.9699 3.54279L28.8044 1.37591L26.0332 2.68198L27.8897 6.62109ZM27.8909 6.62228L24.8108 9.70058L27.0151 11.9062L29.8131 10.5298L27.8909 6.62228ZM38.1808 4.35699L37.9511 8.70563L38.1214 8.71462L38.2919 8.71027L38.1808 4.35699ZM39.1911 5.36728L34.8378 5.25626L34.8335 5.4262L34.8424 5.59597L39.1911 5.36728ZM36.925 15.6587L34.923 19.526L38.87 21.5692L40.8323 17.5814L36.925 15.6587ZM6.81934 29.5102L3.74011 26.431L3.74011 26.431L6.81934 29.5102ZM4.35969 38.0789L8.69634 38.475L8.6969 38.4687L4.35969 38.0789ZM13.3146 30.2319L10.2354 33.3111L10.2354 33.3112L13.3146 30.2319ZM14.0364 36.7272L17.1156 39.8064H17.1156L14.0364 36.7272ZM5.46762 39.1868L5.07784 34.8496L5.07249 34.8501L5.46762 39.1868ZM4.65431 38.8922L1.57508 41.9714H1.57508L4.65431 38.8922ZM37.6519 22.1569C39.0498 20.759 40.0985 19.1379 40.8634 17.5158L32.9858 13.8013C32.5671 14.6894 32.0577 15.4341 31.4934 15.9984L37.6519 22.1569ZM32.5475 27.2612L37.6519 22.1569L31.4934 15.9984L26.3891 21.1028L32.5475 27.2612ZM31.8779 36.5926C35.9738 32.4967 36.3261 26.0743 32.9538 21.5715L25.9828 26.7925C26.7987 27.8819 26.7046 29.4489 25.7194 30.4342L31.8779 36.5926ZM27.5477 40.9228L31.8779 36.5926L25.7194 30.4342L21.3892 34.7644L27.5477 40.9228ZM19.9461 40.9231C22.0454 43.0221 25.448 43.0224 27.5477 40.9228L21.3892 34.7644C22.6911 33.4625 24.8025 33.4628 26.104 34.7641L19.9461 40.9231ZM19.9458 33.321C17.8464 35.4204 17.846 38.8234 19.9461 40.9231L26.104 34.7641C27.4062 36.066 27.4058 38.1779 26.1043 39.4795L19.9458 33.321ZM20.6677 32.5992L19.946 33.3208L26.1041 39.4796L26.8259 38.7579L20.6677 32.5992ZM17.7808 35.871L20.6675 38.7578L26.826 32.5993L23.9393 29.7126L17.7808 35.871ZM17.6005 35.6833C17.6592 35.7469 17.7193 35.8095 17.7808 35.871L23.9393 29.7126C23.9609 29.7343 23.9822 29.7564 24.0031 29.779L17.6005 35.6833ZM7.73639 25.8242L17.7225 35.8104L23.881 29.6519L13.8949 19.6658L7.73639 25.8242ZM7.67554 25.7658C7.73687 25.8271 7.79936 25.8871 7.86298 25.9458L13.7683 19.5442C13.7907 19.5649 13.8126 19.5859 13.8339 19.6073L7.67554 25.7658ZM4.79025 22.8806L7.67558 25.7658L13.8339 19.6072L10.9486 16.722L4.79025 22.8806ZM10.2268 23.6024L10.9485 22.8807L4.79032 16.722L4.0686 17.4436L10.2268 23.6024ZM2.62508 23.6022C4.72448 25.7016 8.1275 25.702 10.2272 23.602L4.0682 17.444C5.37015 16.1418 7.48201 16.1422 8.78354 17.4437L2.62508 23.6022ZM2.62534 16.0001C0.525297 18.0998 0.525678 21.5028 2.62508 23.6022L8.78355 17.4438C10.0851 18.7453 10.0855 20.8572 8.78329 22.1591L2.62534 16.0001ZM6.95528 11.6702L2.62508 16.0004L8.78355 22.1588L13.1138 17.8286L6.95528 11.6702ZM21.9738 10.5922C17.4711 7.22195 11.0504 7.57518 6.95532 11.6701L13.1137 17.8287C14.0988 16.8436 15.6655 16.7494 16.7548 17.5647L21.9738 10.5922ZM21.3897 5.89461L16.2851 10.9992L22.4435 17.1577L27.5482 12.0531L21.3897 5.89461ZM26.0332 2.68198C24.4101 3.44697 22.7881 4.4962 21.3897 5.89462L27.5482 12.0531C28.1128 11.4885 28.858 10.9789 29.7463 10.5602L26.0332 2.68198ZM30.9711 3.54397L30.9699 3.54279L24.8096 9.6994L24.8108 9.70058L30.9711 3.54397ZM38.4106 0.008358C37.9151 -0.0178156 36.1817 0.0181847 34.0067 0.336795C31.798 0.660356 28.8031 1.32045 25.9687 2.71478L29.8131 10.5298C31.5251 9.68758 33.5381 9.2078 35.2691 8.95422C37.0339 8.69569 38.1723 8.71731 37.9511 8.70563L38.4106 0.008358ZM43.5444 5.47831C43.6223 2.42406 41.1241 -0.0741968 38.0698 0.00371027L38.2919 8.71027C36.3633 8.75947 34.7887 7.18482 34.8378 5.25626L43.5444 5.47831ZM40.8323 17.5814C42.2271 14.7467 42.8875 11.7513 43.2111 9.54215C43.5299 7.36642 43.5658 5.63318 43.5398 5.1386L34.8424 5.59597C34.8309 5.37566 34.8523 6.51478 34.5938 8.27953C34.3401 10.0109 33.8601 12.0241 33.0177 13.7361L40.8323 17.5814ZM34.9226 19.5258L34.923 19.526L38.927 11.7915L38.9266 11.7913L34.9226 19.5258ZM3.74011 26.431C2.65269 27.5184 2.01871 28.8825 1.63691 29.8804C1.22227 30.9641 0.923838 32.1114 0.706883 33.1243C0.271891 35.155 0.0794921 37.0546 0.02247 37.6891L8.6969 38.4687C8.74065 37.9819 8.895 36.4802 9.2231 34.9485C9.38769 34.1801 9.57489 33.5058 9.77127 32.9926C10.0005 32.3935 10.1029 32.3851 9.89858 32.5894L3.74011 26.431ZM16.3939 27.1527C14.8174 25.5761 12.7809 24.2847 10.3786 24.0177C7.81764 23.7331 5.48234 24.6887 3.74011 26.431L9.89858 32.5894C9.96407 32.5239 9.93887 32.571 9.80599 32.6208C9.66482 32.6737 9.51921 32.6852 9.41662 32.6738C9.32797 32.664 9.35559 32.6469 9.50556 32.7292C9.65893 32.8134 9.91024 32.986 10.2354 33.3111L16.3939 27.1527ZM17.1156 39.8064C18.8578 38.0642 19.8134 35.7289 19.5288 33.168C19.2618 30.7657 17.9705 28.7293 16.3939 27.1527L10.2354 33.3112C10.5605 33.6363 10.7331 33.8876 10.8173 34.041C10.8996 34.1909 10.8825 34.2186 10.8727 34.1299C10.8613 34.0274 10.8729 33.8818 10.9257 33.7406C10.9755 33.6077 11.0226 33.5825 10.9571 33.6479L17.1156 39.8064ZM5.8574 43.524C6.49192 43.467 8.39151 43.2746 10.4223 42.8396C11.4351 42.6227 12.5824 42.3242 13.6662 41.9096C14.6641 41.5278 16.0282 40.8938 17.1156 39.8064L10.9571 33.6479C11.1615 33.4436 11.1531 33.546 10.554 33.7752C10.0407 33.9716 9.36649 34.1588 8.59809 34.3234C7.06635 34.6515 5.56465 34.8058 5.07784 34.8496L5.8574 43.524ZM1.57508 41.9714C2.70287 43.0992 4.27368 43.6683 5.86274 43.5236L5.07249 34.8501C6.05966 34.7601 7.03427 35.1137 7.73354 35.813L1.57508 41.9714ZM0.0230422 37.6828C-0.122228 39.2732 0.447773 40.8441 1.57508 41.9714L7.73354 35.813C8.43232 36.5117 8.78662 37.4865 8.69633 38.475L0.0230422 37.6828Z" fill="white" mask="url(#path-1-outside-1_2487_77401)"/>
<path d="M15.0864 22.688L20.8599 28.4616L33.8505 15.4711L28.0769 9.69748L15.0864 22.688ZM39.191 5.36728C39.2054 4.80444 38.7436 4.34264 38.1807 4.35699C37.9064 4.3425 32.4359 4.38577 27.8892 6.62307L30.9637 12.5842L36.9249 15.6587C39.1622 11.112 39.2055 5.64156 39.191 5.36728ZM20.1382 16.1928C20.5483 15.7818 20.5174 15.1234 20.1041 14.7156C17.3161 11.9641 12.8084 11.9755 10.0344 14.7494L5.70423 19.0796C5.3053 19.4785 5.3053 20.1241 5.70423 20.523C6.10316 20.9219 6.74874 20.9219 7.14761 20.523L7.86933 19.8013L10.7547 22.6865C11.5411 23.473 12.8087 23.4934 13.6079 22.7199C14.1713 22.1748 15.0142 21.3293 16.3218 20.0176L20.1382 16.1928ZM27.3552 23.4097L20.8599 29.905C20.0628 30.7022 20.0628 31.9946 20.8599 32.7918L23.7467 35.6786L23.025 36.4002C22.626 36.7991 22.626 37.4447 23.025 37.8436C23.4239 38.2425 24.0695 38.2425 24.4683 37.8436L28.7986 33.5134C31.5728 30.7391 31.5838 26.2308 28.8314 23.4428C28.4238 23.0299 27.7655 22.9994 27.3552 23.4097Z" fill="#1883FF" fill-opacity="0.2"/>
<path d="M27.8897 6.62109C26.634 7.21292 25.4504 7.99235 24.4689 8.97386L10.7567 22.6861L20.8605 32.7898L34.5726 19.0776C35.5542 18.0961 36.3335 16.9125 36.9254 15.6568L27.8897 6.62109ZM29.5208 15.4691L28.6548 16.3351C29.0446 17.1001 29.1744 18.0384 28.9868 19.1209C28.8858 19.6549 28.3517 20.0447 27.8032 19.9292C27.2403 19.8281 26.865 19.3084 26.9806 18.76C27.1537 17.7784 26.9372 17.0135 26.3887 16.7247C25.9846 16.5227 25.5083 16.5948 25.1907 16.9125C24.7866 17.3166 24.7866 17.9517 25.1907 18.3558C26.3887 19.5539 26.3887 21.488 25.1907 22.6861C24.2669 23.6099 22.8957 23.8263 21.7122 23.2778L20.8606 24.1295C20.4565 24.5336 19.8214 24.5337 19.4172 24.1295C19.013 23.7253 19.0131 23.0902 19.4172 22.6861L20.2688 21.8345C19.8791 21.0694 19.7636 20.1168 19.9512 19.0343C20.0523 18.5002 20.572 18.1249 21.1348 18.226C21.6977 18.3271 22.0586 18.8612 21.9576 19.3952C21.7844 20.3768 21.9863 21.1273 22.5494 21.4304C22.9535 21.6324 23.4299 21.5603 23.7473 21.2427C24.1515 20.8386 24.1515 20.2036 23.7473 19.7994C22.5493 18.6013 22.5494 16.6671 23.7473 15.4692C24.6712 14.5454 26.0424 14.3289 27.226 14.8773L28.0775 14.0258C28.4817 13.6216 29.1168 13.6216 29.5209 14.0258C29.925 14.4299 29.925 15.0649 29.5208 15.4691ZM6.81934 29.5102C5.05317 31.2764 4.46046 36.9576 4.35969 38.0789C4.3322 38.3798 4.44004 38.6779 4.65431 38.8922C4.86857 39.1065 5.16667 39.2142 5.46762 39.1868C6.58895 39.086 12.2702 38.4933 14.0364 36.7272C15.8441 34.9194 15.5742 32.4915 13.3146 30.2319C11.0551 27.9723 8.62715 27.7024 6.81934 29.5102Z" fill="url(#paint0_linear_2487_77401)"/>
<defs>
<linearGradient id="paint0_linear_2487_77401" x1="20.6404" y1="6.62109" x2="20.6404" y2="39.191" gradientUnits="userSpaceOnUse">
<stop stop-color="#1890FF"/>
<stop offset="1" stop-color="#145AFF"/>
</linearGradient>
</defs>
</svg>
