<svg width="62" height="62" viewBox="0 0 62 62" fill="none" xmlns="http://www.w3.org/2000/svg">
<g clip-path="url(#clip0_2487_77544)">
<path d="M31 62C48.1208 62 62 48.1208 62 31C62 13.8792 48.1208 0 31 0C13.8792 0 0 13.8792 0 31C0 48.1208 13.8792 62 31 62Z" fill="#F0F0F0"/>
<path d="M60.0718 41.7819C61.318 38.4236 62 34.7913 62 30.9993C62 27.2074 61.318 23.5751 60.0718 20.2168H1.92818C0.682121 23.5751 0 27.2074 0 30.9993C0 34.7913 0.682121 38.4236 1.92818 41.7819L31 44.4776L60.0718 41.7819Z" fill="#0052B4"/>
<path d="M31.0003 62.0007C44.3292 62.0007 55.692 53.588 60.0721 41.7832H1.92847C6.30855 53.588 17.6714 62.0007 31.0003 62.0007Z" fill="#D80027"/>
</g>
<defs>
<clipPath id="clip0_2487_77544">
<rect width="62" height="62" fill="white"/>
</clipPath>
</defs>
</svg>
