<svg width="48" height="48" viewBox="0 0 48 48" fill="none" xmlns="http://www.w3.org/2000/svg">
<g clip-path="url(#clip0_3370_42452)">
<mask id="mask0_3370_42452" style="mask-type:alpha" maskUnits="userSpaceOnUse" x="0" y="0" width="48" height="48">
<path d="M0 0H48V47.9999H0V0Z" fill="white"/>
</mask>
<g mask="url(#mask0_3370_42452)">
<path fill-rule="evenodd" clip-rule="evenodd" d="M24 0C37.2551 0 48 10.7449 48 24C48 37.254 37.2551 48 24 48C10.7449 48 0 37.254 0 24C0 10.7449 10.7449 0 24 0Z" fill="url(#paint0_linear_3370_42452)"/>
</g>
<path fill-rule="evenodd" clip-rule="evenodd" d="M25.4966 35.5005C25.4966 35.915 25.1579 36.2537 24.7439 36.2537H23.2472C22.8332 36.2537 22.4945 35.915 22.4945 35.5005V33.1291C19.219 32.687 17.6195 30.8513 17.1864 28.3575C17.1108 27.9334 17.4496 27.5477 17.8826 27.5477H19.5956C19.9532 27.5477 20.2546 27.8022 20.3298 28.1592C20.65 29.6464 21.5064 30.7853 24.1319 30.7853C26.0707 30.7853 27.4453 29.7028 27.4453 28.0847C27.4453 26.4653 26.6356 25.8538 23.7932 25.3828C19.5956 24.8183 17.6099 23.5474 17.6099 20.2534C17.6099 17.7124 19.5302 15.7362 22.504 15.3124V12.9876C22.504 12.5734 22.843 12.2344 23.2567 12.2344H24.7535C25.1675 12.2344 25.5062 12.5734 25.5062 12.9876V15.3784C27.925 15.812 29.4591 17.1852 29.9582 19.4627C30.052 19.8964 29.7133 20.3003 29.2712 20.3003H27.6896C27.3509 20.3003 27.0686 20.0742 26.9653 19.745C26.5417 18.2963 25.5062 17.6753 23.7084 17.6753C21.7226 17.6753 20.6966 18.635 20.6966 19.9806C20.6966 21.4018 21.2806 22.1167 24.3302 22.5598C28.4519 23.1244 30.5795 24.3007 30.5795 27.812C30.5795 30.4752 28.6027 32.6306 25.5062 33.1291V35.5005H25.4966Z" fill="white"/>
</g>
<defs>
<linearGradient id="paint0_linear_3370_42452" x1="24" y1="0" x2="24" y2="48" gradientUnits="userSpaceOnUse">
<stop stop-color="#1890FF"/>
<stop offset="1" stop-color="#145AFF"/>
</linearGradient>
<clipPath id="clip0_3370_42452">
<rect width="48" height="48" fill="white"/>
</clipPath>
</defs>
</svg>
