<svg width="62" height="62" viewBox="0 0 62 62" fill="none" xmlns="http://www.w3.org/2000/svg">
<path d="M61.0734 38.4991C56.9331 55.1064 40.1126 65.2132 23.5033 61.0719C6.901 56.9316 -3.20588 40.1101 0.936217 23.5041C5.07467 6.89499 21.8952 -3.21265 38.4993 0.927626C55.1074 5.0679 65.2136 21.8913 61.0729 38.4994L61.0732 38.4991H61.0734Z" fill="#F7931A"/>
<path fill-rule="evenodd" clip-rule="evenodd" d="M44.6721 26.5831C45.2891 22.4577 42.1483 20.2401 37.8535 18.7608L39.2467 13.1725L35.845 12.3249L34.4887 17.766C33.5944 17.543 32.676 17.3328 31.7632 17.1245L33.1294 11.6474L29.7298 10.7998L28.3357 16.3862C27.5957 16.2177 26.8688 16.0512 26.1636 15.8757L26.1675 15.8582L21.4765 14.6867L20.5716 18.32C20.5716 18.32 23.0954 18.8985 23.0422 18.9341C24.4197 19.2779 24.6688 20.1898 24.6274 20.9126L23.0404 27.2789C23.1352 27.303 23.2583 27.3379 23.394 27.3924L23.2954 27.3678C23.2114 27.3468 23.1241 27.3249 23.0345 27.3035L20.8099 36.2218C20.6416 36.6403 20.2143 37.2684 19.2512 37.0299C19.2853 37.0793 16.7787 36.4129 16.7787 36.4129L15.0898 40.3068L19.5167 41.4103C20.0014 41.5319 20.4805 41.6568 20.9546 41.7804L20.9549 41.7804C21.2862 41.8668 21.6151 41.9525 21.942 42.0361L20.5343 47.6885L23.9321 48.5361L25.3261 42.9437C26.2544 43.1957 27.1552 43.4282 28.0371 43.6473L26.6477 49.2133L30.0496 50.0609L31.4571 44.4192C37.2578 45.5169 41.6195 45.0743 43.4554 39.8276C44.9347 35.6034 43.3817 33.1669 40.33 31.578C42.5527 31.0654 44.2269 29.6035 44.6733 26.5836L44.6723 26.5828L44.6721 26.5831ZM36.8992 37.4816C35.9347 41.3572 29.8683 39.7549 27.0927 39.0218L27.0925 39.0218C26.8429 38.9558 26.6199 38.8969 26.4297 38.8497L28.2977 31.3613C28.5296 31.4192 28.813 31.4828 29.1341 31.5549L29.1341 31.5549C32.0051 32.1992 37.8874 33.5193 36.8993 37.4816H36.8992ZM29.7101 28.0796C32.0241 28.6972 37.0721 30.0444 37.9513 26.522H37.9516C38.8493 22.9194 33.9435 21.8333 31.5475 21.3028C31.2779 21.2431 31.0401 21.1905 30.8459 21.1421L29.1523 27.9336C29.3122 27.9735 29.4999 28.0235 29.7101 28.0796Z" fill="white"/>
</svg>
