<svg width="62" height="62" viewBox="0 0 62 62" fill="none" xmlns="http://www.w3.org/2000/svg">
<g clip-path="url(#clip0_3784_34533)">
<path d="M31 62C48.1208 62 62 48.1208 62 31C62 13.8792 48.1208 0 31 0C13.8792 0 0 13.8792 0 31C0 48.1208 13.8792 62 31 62Z" fill="#FCFCFC"/>
<path d="M12.8041 28.7535L9.43457 22.6403L12.8041 16.623L16.1737 22.6403L12.8041 28.7535Z" fill="#A2001D"/>
<path d="M6.06511 28.7535L2.69556 22.6403L6.06511 16.623L9.43467 22.6403L6.06511 28.7535Z" fill="#A2001D"/>
<path d="M12.8041 45.377L9.43457 39.2639L12.8041 33.2466L16.1737 39.2639L12.8041 45.377Z" fill="#A2001D"/>
<path d="M6.06511 45.377L2.69556 39.2639L6.06511 33.2466L9.43467 39.2639L6.06511 45.377Z" fill="#A2001D"/>
<path d="M16.1739 6.01751L15.2199 4.31396C13.5088 5.32776 11.904 6.50152 10.4253 7.81466L12.8043 12.1306L16.1739 6.01751Z" fill="#A2001D"/>
<path d="M12.8043 49.8696L10.4001 54.1631C11.8775 55.478 13.4813 56.6535 15.1916 57.6694L16.174 55.887L12.8043 49.8696Z" fill="#A2001D"/>
<path d="M18.8696 39.0869V59.5352C22.5956 61.1211 26.695 61.9999 31.0001 61.9999C44.329 61.9999 55.6918 53.5873 60.0719 41.7825L18.8696 39.0869Z" fill="#6DA544"/>
<path d="M60.0719 41.7826C61.3181 38.4243 62.0001 34.7919 62.0001 31C62.0001 13.8793 48.1208 0 31.0001 0C26.6953 0 22.5956 0.878293 18.8696 2.46402V41.7827H60.0719V41.7826Z" fill="#A2001D"/>
</g>
<defs>
<clipPath id="clip0_3784_34533">
<rect width="62" height="62" fill="white"/>
</clipPath>
</defs>
</svg>
