<svg width="62" height="62" viewBox="0 0 62 62" fill="none" xmlns="http://www.w3.org/2000/svg">
<g clip-path="url(#clip0_3739_34368)">
<path d="M31 62C48.1208 62 62 48.1208 62 31C62 13.8792 48.1208 0 31 0C13.8792 0 0 13.8792 0 31C0 48.1208 13.8792 62 31 62Z" fill="#338AF3"/>
<path d="M48.5201 31.3369H13.4766C13.4766 33.7562 15.5837 35.7174 18.0028 35.7174H17.857C17.857 38.1367 19.8181 40.0978 22.2375 40.0978C22.2375 42.5171 24.1986 44.4783 26.6179 44.4783H35.3788C37.7981 44.4783 39.7592 42.5171 39.7592 40.0978C42.1786 40.0978 44.1397 38.1367 44.1397 35.7174H43.9939C46.4127 35.7174 48.5201 33.7562 48.5201 31.3369Z" fill="#FFDA44"/>
<path d="M43.132 25.6089C43.132 32.3083 37.7009 37.7393 31.0015 37.7393C24.302 37.7393 18.8711 32.3083 18.8711 25.6089" fill="#338AF3"/>
<path d="M40.2656 25.6085L36.4796 27.3894L38.4957 31.0561L34.3846 30.2696L33.8636 34.4227L31.0001 31.3681L28.1365 34.4227L27.6157 30.2696L23.5045 31.0559L25.5205 27.3893L21.7346 25.6085L25.5206 23.8277L23.5045 20.1611L27.6155 20.9475L28.1366 16.7944L31.0001 19.849L33.8637 16.7944L34.3846 20.9475L38.4958 20.1611L36.4797 23.8278L40.2656 25.6085Z" fill="#FFDA44"/>
</g>
<defs>
<clipPath id="clip0_3739_34368">
<rect width="62" height="62" fill="white"/>
</clipPath>
</defs>
</svg>
