<svg width="62" height="62" viewBox="0 0 62 62" fill="none" xmlns="http://www.w3.org/2000/svg">
<g clip-path="url(#clip0_3739_34315)">
<path d="M31 62C48.1208 62 62 48.1208 62 31C62 13.8792 48.1208 0 31 0C13.8792 0 0 13.8792 0 31C0 48.1208 13.8792 62 31 62Z" fill="#F0F0F0"/>
<path d="M29.6521 31.0001H61.9999C61.9999 28.2021 61.6269 25.4915 60.9319 22.9131H29.6521V31.0001Z" fill="#D80027"/>
<path d="M29.6521 14.8263H57.4499C55.5522 11.7297 53.1259 8.99257 50.2969 6.73926H29.6521V14.8263Z" fill="#D80027"/>
<path d="M30.9999 62.0003C38.2957 62.0003 45.0015 59.4787 50.2969 55.2612H11.7029C16.9983 59.4787 23.7041 62.0003 30.9999 62.0003Z" fill="#D80027"/>
<path d="M4.54992 47.1739H57.45C58.9734 44.688 60.155 41.9706 60.932 39.0869H1.06787C1.84493 41.9706 3.02644 44.688 4.54992 47.1739Z" fill="#D80027"/>
<path d="M14.3598 4.84109H17.1848L14.557 6.75013L15.5608 9.83911L12.9332 7.93007L10.3056 9.83911L11.1726 7.17057C8.85898 9.09777 6.83114 11.3557 5.16005 13.8715H6.06522L4.39255 15.0867C4.13196 15.5214 3.88202 15.9631 3.6425 16.4112L4.44123 18.8696L2.95105 17.7869C2.58063 18.5717 2.24181 19.3742 1.93726 20.1934L2.81725 22.902H6.06522L3.43749 24.811L4.44123 27.9L1.81362 25.991L0.239645 27.1346C0.0821016 28.401 0 29.6909 0 31H31C31 13.8793 31 11.8609 31 0C24.876 0 19.1673 1.77645 14.3598 4.84109ZM15.5608 27.9L12.9332 25.991L10.3056 27.9L11.3093 24.811L8.68157 22.902H11.9296L12.9332 19.813L13.9368 22.902H17.1848L14.557 24.811L15.5608 27.9ZM14.557 15.7806L15.5608 18.8696L12.9332 16.9605L10.3056 18.8696L11.3093 15.7806L8.68157 13.8715H11.9296L12.9332 10.7826L13.9368 13.8715H17.1848L14.557 15.7806ZM26.6803 27.9L24.0527 25.991L21.4251 27.9L22.4289 24.811L19.8011 22.902H23.0491L24.0527 19.813L25.0564 22.902H28.3043L25.6766 24.811L26.6803 27.9ZM25.6766 15.7806L26.6803 18.8696L24.0527 16.9605L21.4251 18.8696L22.4289 15.7806L19.8011 13.8715H23.0491L24.0527 10.7826L25.0564 13.8715H28.3043L25.6766 15.7806ZM25.6766 6.75013L26.6803 9.83911L24.0527 7.93007L21.4251 9.83911L22.4289 6.75013L19.8011 4.84109H23.0491L24.0527 1.75211L25.0564 4.84109H28.3043L25.6766 6.75013Z" fill="#0052B4"/>
</g>
<defs>
<clipPath id="clip0_3739_34315">
<rect width="62" height="62" fill="white"/>
</clipPath>
</defs>
</svg>
