<svg width="62" height="62" viewBox="0 0 62 62" fill="none" xmlns="http://www.w3.org/2000/svg">
<path d="M61.8319 31.0005C61.8319 48.0313 48.0261 61.8374 30.9956 61.8374C13.9649 61.8374 0.158936 48.0313 0.158936 31.0005C0.158936 13.97 13.9649 0.164062 30.9956 0.164062C48.0259 0.164062 61.8319 13.97 61.8319 31.0005" fill="#00A478"/>
<path d="M28.687 29.9702V24.4326H21.1763V19.5786H42.1641V24.5009H34.6534V29.9702H28.687Z" fill="white"/>
<path fill-rule="evenodd" clip-rule="evenodd" d="M17.9473 30.5862C17.9473 28.7404 23.9839 27.2363 31.4946 27.2363C39.0053 27.2363 45.042 28.7404 45.042 30.5862C45.042 32.4321 39.0053 33.9362 31.4946 33.9362C23.9839 33.9362 17.9473 32.4321 17.9473 30.5862ZM43.9189 30.5857C43.4275 29.902 39.3563 27.7827 31.4946 27.7827C23.633 27.7827 19.5617 29.8337 19.0704 30.5857C19.5617 31.2693 23.633 32.2948 31.4946 32.2948C39.4265 32.2948 43.4275 31.2693 43.9189 30.5857Z" fill="white"/>
<path d="M34.6533 31.6781V27.8496C33.6706 27.7813 32.6177 27.7129 31.5648 27.7129C30.5821 27.7129 29.6696 27.7129 28.7571 27.7813V31.6097C29.5994 31.6097 30.5821 31.6781 31.5648 31.6781C32.6177 31.7465 33.6706 31.7465 34.6533 31.6781Z" fill="white"/>
<path d="M31.4945 33.9346C30.5118 33.9346 29.5993 33.9346 28.6868 33.8662V44.0527H34.583V33.7979C33.6003 33.8662 32.5474 33.9346 31.4945 33.9346Z" fill="white"/>
</svg>
